<svg width="18" height="18" viewBox="0 0 18 18" fill="none" xmlns="http://www.w3.org/2000/svg">
<path d="M9.27832 6.72168C9.27832 7.82625 10.1738 8.72168 11.2783 8.72168H16C17.1046 8.72168 18 9.61711 18 10.7217V16C18 17.1046 17.1046 18 16 18H10.7217C9.61711 18 8.72168 17.1046 8.72168 16V11.2783C8.72168 10.1738 7.82625 9.27832 6.72168 9.27832H2C0.89543 9.27832 0 8.38289 0 7.27832V2C0 0.895431 0.895431 0 2 0H7.27832C8.38289 0 9.27832 0.895431 9.27832 2V6.72168Z" fill="#E6E6FF"/>
<path d="M5.35059 9.64941C7.00735 9.64951 8.35057 10.9926 8.35059 12.6494V15C8.35057 16.6568 7.00735 17.9999 5.35059 18H3C1.34316 18 1.51293e-05 16.6568 0 15V12.6494C1.95882e-05 10.9926 1.34316 9.64941 3 9.64941H5.35059ZM15 0C16.6569 0 18 1.34315 18 3V5.35059C18 7.00741 16.6568 8.35059 15 8.35059H12.6494C10.9927 8.35043 9.64945 7.00731 9.64941 5.35059V3C9.64941 1.34324 10.9927 0.000156526 12.6494 0H15Z" fill="#E6E6FF"/>
</svg>
