<?xml version="1.0" encoding="UTF-8"?>
<svg xmlns="http://www.w3.org/2000/svg" width="100" height="100" viewBox="0 0 100 100" fill="none">
  <rect x="1" y="1" width="98" height="98" rx="11" fill="white" stroke="#3858E9" stroke-width="2"></rect>
  <path d="M71.5962 69C74.4522 73.275 75.6603 75.8843 74.6453 78.0621C74.5206 78.3293 74.3746 78.5871 74.209 78.8334C72.4137 81.4999 67.7734 81.4999 58.4931 81.4999H41.507C32.2266 81.4999 27.5864 81.4999 25.791 78.8334C25.6252 78.5871 25.4793 78.3293 25.3548 78.0621C24.3397 75.8843 25.5477 73.275 28.4036 69" stroke="#3858E9" stroke-width="5" stroke-linecap="round" stroke-linejoin="round"></path>
  <path d="M59.375 42.4375C59.375 47.6152 55.1778 51.8124 50 51.8124C44.8222 51.8124 40.625 47.6152 40.625 42.4375C40.625 37.2598 44.8222 33.0625 50 33.0625C55.1778 33.0625 59.375 37.2598 59.375 42.4375Z" stroke="#3858E9" stroke-width="5"></path>
  <path d="M50 19C62.6837 19 73.4374 29.7125 73.4374 42.709C73.4374 55.9123 62.5087 65.1779 52.414 71.4785C51.6784 71.9019 50.8465 72.1248 50 72.1248C49.1534 72.1248 48.3215 71.9019 47.5859 71.4785C37.5101 65.1164 26.5625 55.958 26.5625 42.709C26.5625 29.7125 37.3162 19 50 19Z" stroke="#3858E9" stroke-width="5"></path>
</svg>
