<?xml version="1.0" encoding="UTF-8"?> <svg xmlns="http://www.w3.org/2000/svg" width="150" height="140" viewBox="0 0 150 140" fill="none"><path d="M0 50.9528C0 49.2959 1.34315 47.9528 3 47.9528H30.5714C32.2283 47.9528 33.5714 49.2959 33.5714 50.9528L33.5714 105.368C33.5714 107.025 34.9146 108.368 36.5714 108.368H112.714C114.371 108.368 115.714 107.025 115.714 105.368V81.4937C115.714 79.8369 114.371 78.4937 112.714 78.4937H67.3617C65.7048 78.4937 64.3617 77.1506 64.3617 75.4937V50.9528C64.3617 49.2959 65.7048 47.9528 67.3617 47.9528L147 47.9528C148.657 47.9528 150 49.2959 150 50.9528V137C150 138.657 148.657 140 147 140H3C1.34315 140 0 138.657 0 137L0 114.608L0 50.9528Z" fill="black"></path><path d="M0 28.6318C0 30.2887 1.34315 31.6318 3 31.6318L147 31.6318C148.657 31.6318 150 30.2887 150 28.6318V3C150 1.34315 148.657 0 147 0L3 0C1.34314 0 0 1.34315 0 3L0 28.6318Z" fill="black"></path></svg> 